<svg width="25" height="24" viewBox="0 0 25 24" fill="none" xmlns="http://www.w3.org/2000/svg">
<g clip-path="url(#clip0_476_680)">
<path d="M24.4523 4.56975C23.5539 4.96421 22.6025 5.22498 21.6285 5.34375C22.6555 4.72763 23.4242 3.7601 23.7923 2.6205C22.821 3.18354 21.764 3.58359 20.6633 3.80475C19.9231 3.01384 18.9425 2.48934 17.8738 2.31262C16.805 2.1359 15.7078 2.31684 14.7524 2.82737C13.797 3.3379 13.0368 4.14948 12.5897 5.13618C12.1426 6.12289 12.0337 7.22956 12.2798 8.2845C8.19005 8.09325 4.56455 6.12825 2.1398 3.15975C1.69847 3.91044 1.46763 4.7662 1.47155 5.637C1.47128 6.44646 1.67073 7.24348 2.05222 7.95741C2.43371 8.67133 2.98546 9.2801 3.65855 9.72975C2.87819 9.70668 2.11478 9.49654 1.43255 9.117V9.17625C1.43273 10.3124 1.82553 11.4136 2.54445 12.2934C3.26336 13.1731 4.26421 13.7775 5.37755 14.004C4.95567 14.1164 4.52112 14.1741 4.08455 14.1757C3.7688 14.1757 3.4673 14.145 3.16655 14.0895C3.48344 15.0673 4.0973 15.922 4.92268 16.5345C5.74805 17.1471 6.74388 17.4871 7.77155 17.5072C6.03033 18.8708 3.88188 19.6105 1.6703 19.608C1.27858 19.6096 0.887116 19.5875 0.498047 19.542C2.75419 20.9874 5.37784 21.7548 8.0573 21.753C17.1075 21.753 22.053 14.2567 22.053 7.76475C22.053 7.55775 22.053 7.347 22.0373 7.1355C23.0051 6.44256 23.8388 5.57954 24.498 4.5885L24.4523 4.56975Z" fill="black"/>
</g>
<defs>
<clipPath id="clip0_476_680">
<rect width="24" height="24" fill="white" transform="translate(0.5)"/>
</clipPath>
</defs>
</svg>
